# xmcd
#
# Track frame offsets:
#	150
#	16395
#	36730
#	54972
#	75082
#	92765
#	111385
#	129585
#	150850
#	167722
#	188655
#	209087
#
# Disc length: 3044 seconds
#
# Revision: 3
# Processed by: cddbd v1.5.2PL0 Copyright (c) Steve Scherf et al.
# Submitted via: audiograbber 1.83.01
#
DISCID=950be20c
DTITLE=Chapman, Beth Nielsen - Deeper still
DYEAR=2002
DGENRE=Country
TTITLE0=World of hurt (with John Hiatt)
TTITLE1=Angels by my side
TTITLE2=Every December sky (with John Prine)
TTITLE3=Shake my soul (with Bonnie Raitt)
TTITLE4=Wait for the way (with Bonnie Raitt)
TTITLE5=All comes down to love
TTITLE6=Deeper still (with Vince Gill)
TTITLE7=Sleep
TTITLE8=Feathers, bones and shells
TTITLE9=All for the love
TTITLE10=There's a light (with Emmylou Harris)
TTITLE11=I will know your love
EXTD=
EXTT0=
EXTT1=
EXTT2=
EXTT3=
EXTT4=
EXTT5=
EXTT6=
EXTT7=
EXTT8=
EXTT9=
EXTT10=
EXTT11=
PLAYORDER=
